<svg width="189" height="56" viewBox="0 0 189 56" fill="none" xmlns="http://www.w3.org/2000/svg">
<rect width="189" height="56" rx="4" fill="#69B99D"/>
<path d="M48.6 29.5C48.4 29.4 47.1 28.8 46.9 28.7C46.7 28.6 46.5 28.6 46.3 28.8C46.1 29 45.7 29.6 45.5 29.8C45.4 30 45.2 30 45 29.9C44.3 29.6 43.6 29.2 43 28.7C42.5 28.2 42 27.6 41.6 27C41.5 26.8 41.6 26.6 41.7 26.5C41.8 26.4 41.9 26.2 42.1 26.1C42.2 26 42.3 25.8 42.3 25.7C42.4 25.6 42.4 25.4 42.3 25.3C42.2 25.2 41.7 24 41.5 23.5C41.4 22.8 41.2 22.8 41 22.8C40.9 22.8 40.7 22.8 40.5 22.8C40.3 22.8 40 23 39.9 23.1C39.3 23.7 39 24.4 39 25.2C39.1 26.1 39.4 27 40 27.8C41.1 29.4 42.5 30.7 44.2 31.5C44.7 31.7 45.1 31.9 45.6 32C46.1 32.2 46.6 32.2 47.2 32.1C47.9 32 48.5 31.5 48.9 30.9C49.1 30.5 49.1 30.1 49 29.7C49 29.7 48.8 29.6 48.6 29.5ZM51.1 20.4C47.2 16.5 40.9 16.5 37 20.4C33.8 23.6 33.2 28.5 35.4 32.4L34 37.5L39.3 36.1C40.8 36.9 42.4 37.3 44 37.3C49.5 37.3 53.9 32.9 53.9 27.4C54 24.8 52.9 22.3 51.1 20.4ZM48.4 34.4C47.1 35.2 45.6 35.7 44 35.7C42.5 35.7 41.1 35.3 39.8 34.6L39.5 34.4L36.4 35.2L37.2 32.2L37 31.9C34.6 27.9 35.8 22.9 39.7 20.4C43.6 17.9 48.6 19.2 51 23C53.4 26.9 52.3 32 48.4 34.4Z" fill="#F9F9F9"/>
<path d="M72.2452 33.192C71.1359 33.192 70.1759 32.952 69.3652 32.472C68.5652 31.9813 67.9465 31.304 67.5092 30.44C67.0719 29.5653 66.8532 28.5573 66.8532 27.416C66.8532 26.264 67.0719 25.256 67.5092 24.392C67.9465 23.5173 68.5652 22.8347 69.3652 22.344C70.1759 21.8533 71.1359 21.608 72.2452 21.608C73.5572 21.608 74.6292 21.928 75.4612 22.568C76.2932 23.208 76.8212 24.104 77.0452 25.256H75.1572C75.0079 24.6053 74.6879 24.088 74.1972 23.704C73.7065 23.32 73.0505 23.128 72.2292 23.128C71.1092 23.128 70.2239 23.512 69.5732 24.28C68.9225 25.0373 68.5972 26.0827 68.5972 27.416C68.5972 28.7387 68.9225 29.7787 69.5732 30.536C70.2239 31.2933 71.1092 31.672 72.2292 31.672C73.0505 31.672 73.7065 31.4907 74.1972 31.128C74.6879 30.7653 75.0079 30.2693 75.1572 29.64H77.0452C76.8212 30.7493 76.2932 31.6187 75.4612 32.248C74.6292 32.8773 73.5572 33.192 72.2452 33.192ZM84.0774 33.192C82.9681 33.192 81.9974 32.9467 81.1654 32.456C80.3334 31.9653 79.6828 31.288 79.2134 30.424C78.7441 29.5493 78.5094 28.5413 78.5094 27.4C78.5094 26.2587 78.7441 25.256 79.2134 24.392C79.6828 23.5173 80.3334 22.8347 81.1654 22.344C81.9974 21.8533 82.9681 21.608 84.0774 21.608C85.1868 21.608 86.1574 21.8533 86.9894 22.344C87.8214 22.8347 88.4668 23.5173 88.9254 24.392C89.3948 25.256 89.6294 26.2587 89.6294 27.4C89.6294 28.5413 89.3948 29.5493 88.9254 30.424C88.4668 31.288 87.8214 31.9653 86.9894 32.456C86.1574 32.9467 85.1868 33.192 84.0774 33.192ZM84.0774 31.672C84.8454 31.672 85.5121 31.5013 86.0774 31.16C86.6534 30.8187 87.1014 30.328 87.4214 29.688C87.7414 29.048 87.9014 28.2853 87.9014 27.4C87.9014 26.5147 87.7414 25.752 87.4214 25.112C87.1014 24.472 86.6534 23.9813 86.0774 23.64C85.5121 23.2987 84.8454 23.128 84.0774 23.128C83.3094 23.128 82.6374 23.2987 82.0614 23.64C81.4854 23.9813 81.0374 24.472 80.7174 25.112C80.4081 25.752 80.2534 26.5147 80.2534 27.4C80.2534 28.2853 80.4081 29.048 80.7174 29.688C81.0374 30.328 81.4854 30.8187 82.0614 31.16C82.6374 31.5013 83.3094 31.672 84.0774 31.672ZM91.5188 33V21.8H93.5188L97.3108 29.256L101.087 21.8H103.087V33H101.391V24.728L97.9668 31.4H96.6548L93.2148 24.744V33H91.5188ZM105.363 33V21.8H112.483V23.176H107.059V26.664H112.003V28.008H107.059V31.624H112.483V33H105.363ZM119.495 33.192C118.386 33.192 117.426 32.952 116.615 32.472C115.815 31.9813 115.197 31.304 114.759 30.44C114.322 29.5653 114.103 28.5573 114.103 27.416C114.103 26.264 114.322 25.256 114.759 24.392C115.197 23.5173 115.815 22.8347 116.615 22.344C117.426 21.8533 118.386 21.608 119.495 21.608C120.807 21.608 121.879 21.928 122.711 22.568C123.543 23.208 124.071 24.104 124.295 25.256H122.407C122.258 24.6053 121.938 24.088 121.447 23.704C120.957 23.32 120.301 23.128 119.479 23.128C118.359 23.128 117.474 23.512 116.823 24.28C116.173 25.0373 115.847 26.0827 115.847 27.416C115.847 28.7387 116.173 29.7787 116.823 30.536C117.474 31.2933 118.359 31.672 119.479 31.672C120.301 31.672 120.957 31.4907 121.447 31.128C121.938 30.7653 122.258 30.2693 122.407 29.64H124.295C124.071 30.7493 123.543 31.6187 122.711 32.248C121.879 32.8773 120.807 33.192 119.495 33.192ZM126.159 33V21.8H133.279V23.176H127.855V26.664H132.799V28.008H127.855V31.624H133.279V33H126.159ZM142.035 33.192C140.99 33.192 140.158 32.8987 139.539 32.312C138.931 31.7253 138.627 30.8987 138.627 29.832H140.323C140.323 30.3653 140.451 30.808 140.707 31.16C140.974 31.512 141.406 31.688 142.003 31.688C142.59 31.688 143.006 31.5227 143.251 31.192C143.497 30.8507 143.619 30.4187 143.619 29.896V21.8H145.315V29.896C145.315 30.952 145.022 31.768 144.435 32.344C143.849 32.9093 143.049 33.192 142.035 33.192ZM146.377 33L150.505 21.8H152.361L156.457 33H154.665L153.705 30.264H149.129L148.169 33H146.377ZM149.609 28.92H153.225L151.417 23.816L149.609 28.92ZM150.681 21.144V19.928L154.169 17.944V19.352L150.681 21.144Z" fill="#F9F9F9"/>
</svg>
